<?xml version="1.0" standalone="no"?><!DOCTYPE svg PUBLIC "-//W3C//DTD SVG 1.1//EN" "http://www.w3.org/Graphics/SVG/1.1/DTD/svg11.dtd"><svg t="1536391334122" class="icon" style="" viewBox="0 0 1206 1024" version="1.1" xmlns="http://www.w3.org/2000/svg" p-id="2430" xmlns:xlink="http://www.w3.org/1999/xlink" width="150.75" height="128"><defs><style type="text/css"></style></defs><path d="M139.995429 262.546286s-122.294857 127.963429-101.046858 336.164571c21.248 208.237714 153.088 380.050286 592.749715 380.050286 439.625143 0 550.217143-229.485714 552.813714-418.230857 2.596571-188.672-82.395429-272.822857-122.294857-301.458286 0 0 0.256-135.460571-12.544-207.030857 0 0-67.657143-8.009143-213.76 75.702857 0 0-199.460571-19.492571-465.261714 2.377143 0 0-111.652571-74.605714-224.146286-94.134857 0 0-18.651429 117.467429-6.509714 226.56z" fill="#333333" p-id="2431"></path><path d="M336.859429 468.662857h545.499428s154.587429-17.371429 154.587429 235.52c1.243429 222.573714-407.369143 208.201143-407.369143 208.201143s-447.488 17.773714-447.744-229.266286c-0.585143-223.085714 155.026286-214.454857 155.026286-214.454857z" fill="#E2B89F" p-id="2432"></path><path d="M832.621714 570.185143c35.072 0 63.524571 45.714286 63.524572 101.924571 0 56.32-28.452571 101.961143-63.524572 101.961143-35.035429 0-63.488-45.641143-63.488-101.961143-0.036571-56.210286 28.452571-101.924571 63.488-101.924571z" fill="#9C584F" p-id="2433"></path><path d="M832.621714 792.356571c-45.860571 0-81.773714-52.809143-81.773714-120.246857 0-67.401143 35.913143-120.210286 81.773714-120.210285 45.897143 0 81.810286 52.809143 81.810286 120.210285 0 67.437714-35.949714 120.246857-81.810286 120.246857z m0-203.885714c-21.394286 0-45.202286 34.340571-45.202285 83.638857 0 49.334857 23.808 83.675429 45.202285 83.675429s45.238857-34.340571 45.238857-83.675429c0-49.298286-23.844571-83.638857-45.238857-83.638857z" fill="#FFFFFF" p-id="2434"></path><path d="M393.764571 570.185143c35.072 0 63.524571 45.714286 63.524572 101.924571 0 56.32-28.452571 101.961143-63.524572 101.961143-35.035429 0-63.488-45.641143-63.488-101.961143-0.036571-56.210286 28.452571-101.924571 63.488-101.924571z" fill="#9C584F" p-id="2435"></path><path d="M393.764571 792.356571c-45.860571 0-81.773714-52.809143-81.773714-120.246857 0-67.401143 35.913143-120.210286 81.773714-120.210285 45.860571 0 81.810286 52.809143 81.810286 120.210285 0 67.437714-35.949714 120.246857-81.810286 120.246857z m0-203.885714c-21.394286 0-45.202286 34.340571-45.202285 83.638857 0 49.334857 23.808 83.675429 45.202285 83.675429s45.238857-34.340571 45.238858-83.675429c0-49.298286-23.844571-83.638857-45.238858-83.638857z" fill="#FFFFFF" p-id="2436"></path><path d="M587.922286 793.782857s18.249143-51.858286 40.557714-3.254857c0 0-16.713143 10.861714-10.422857 36.425143l52.224 19.968h-118.125714l46.811428-21.028572s6.729143-38.619429-11.044571-32.109714z" fill="#9C584F" p-id="2437"></path></svg>